<svg xmlns="http://www.w3.org/2000/svg" viewBox="0 0 1700 990" width="1700" height="990" font-family="Consolas, Monaco, monospace">
<defs>
  <style>
    .entity-header { fill: #2d3748; }
    .entity-header-text { fill: #fff; font-size: 13px; font-weight: bold; }
    .entity-body { fill: #f7fafc; stroke: #cbd5e0; stroke-width: 1; }
    .field-text { fill: #2d3748; font-size: 10px; }
    .type-text { fill: #718096; font-size: 10px; }
    .key-text { fill: #e53e3e; font-size: 10px; font-weight: bold; }
    .fk-text { fill: #3182ce; font-size: 10px; font-weight: bold; }
    .rel-line { stroke: #4a5568; stroke-width: 1.5; fill: none; }
    .rel-label { fill: #4a5568; font-size: 9px; }
    .title-text { fill: #1a202c; font-size: 20px; font-weight: bold; }
    .subtitle-text { fill: #718096; font-size: 12px; }
  </style>
</defs>
<defs>
  <marker id="arrow" markerWidth="8" markerHeight="6" refX="8" refY="3" orient="auto">
    <path d="M0,0 L8,3 L0,6" fill="#4a5568"/>
  </marker>
</defs>
<text x="850.0" y="30" text-anchor="middle" class="title-text">Costuras de Paqui — Entity Relationship Diagram</text>
<rect x="52" y="72" width="260" height="180" rx="4" fill="#e2e8f0" opacity="0.5"/>
<rect x="50" y="70" width="260" height="180" rx="4" class="entity-body"/>
<rect x="50" y="70" width="260" height="28" rx="4" class="entity-header"/>
<rect x="50" y="94" width="260" height="4" class="entity-header"/>
<text x="180.0" y="88" text-anchor="middle" class="entity-header-text">Customer</text>
<text x="58" y="114" class="field-text">id</text>
<text x="190" y="114" class="type-text">INTEGER</text>
<text x="302" y="114" text-anchor="end" class="key-text">PK</text>
<text x="58" y="132" class="field-text">first_name</text>
<text x="190" y="132" class="type-text">VARCHAR(100)</text>
<text x="58" y="150" class="field-text">last_name</text>
<text x="190" y="150" class="type-text">VARCHAR(100)</text>
<text x="58" y="168" class="field-text">phone</text>
<text x="190" y="168" class="type-text">VARCHAR(20)</text>
<text x="58" y="186" class="field-text">email</text>
<text x="190" y="186" class="type-text">VARCHAR(255)</text>
<text x="58" y="204" class="field-text">address</text>
<text x="190" y="204" class="type-text">TEXT</text>
<text x="58" y="222" class="field-text">notes</text>
<text x="190" y="222" class="type-text">TEXT</text>
<text x="58" y="240" class="field-text">created_at</text>
<text x="190" y="240" class="type-text">DATETIME</text>
<rect x="352" y="72" width="260" height="198" rx="4" fill="#e2e8f0" opacity="0.5"/>
<rect x="350" y="70" width="260" height="198" rx="4" class="entity-body"/>
<rect x="350" y="70" width="260" height="28" rx="4" class="entity-header"/>
<rect x="350" y="94" width="260" height="4" class="entity-header"/>
<text x="480.0" y="88" text-anchor="middle" class="entity-header-text">Order</text>
<text x="358" y="114" class="field-text">id</text>
<text x="490" y="114" class="type-text">INTEGER</text>
<text x="602" y="114" text-anchor="end" class="key-text">PK</text>
<text x="358" y="132" class="field-text">customer_id</text>
<text x="490" y="132" class="type-text">INTEGER</text>
<text x="602" y="132" text-anchor="end" class="fk-text">FK</text>
<text x="358" y="150" class="field-text">order_date</text>
<text x="490" y="150" class="type-text">DATE</text>
<text x="358" y="168" class="field-text">due_date</text>
<text x="490" y="168" class="type-text">DATE</text>
<text x="358" y="186" class="field-text">status</text>
<text x="490" y="186" class="type-text">VARCHAR(30)</text>
<text x="358" y="204" class="field-text">total_price</text>
<text x="490" y="204" class="type-text">DECIMAL(10,2)</text>
<text x="358" y="222" class="field-text">remarks</text>
<text x="490" y="222" class="type-text">TEXT</text>
<text x="358" y="240" class="field-text">created_at</text>
<text x="490" y="240" class="type-text">DATETIME</text>
<text x="358" y="258" class="field-text">updated_at</text>
<text x="490" y="258" class="type-text">DATETIME</text>
<rect x="702" y="72" width="260" height="126" rx="4" fill="#e2e8f0" opacity="0.5"/>
<rect x="700" y="70" width="260" height="126" rx="4" class="entity-body"/>
<rect x="700" y="70" width="260" height="28" rx="4" class="entity-header"/>
<rect x="700" y="94" width="260" height="4" class="entity-header"/>
<text x="830.0" y="88" text-anchor="middle" class="entity-header-text">OrderItem</text>
<text x="708" y="114" class="field-text">id</text>
<text x="840" y="114" class="type-text">INTEGER</text>
<text x="952" y="114" text-anchor="end" class="key-text">PK</text>
<text x="708" y="132" class="field-text">order_id</text>
<text x="840" y="132" class="type-text">INTEGER</text>
<text x="952" y="132" text-anchor="end" class="fk-text">FK</text>
<text x="708" y="150" class="field-text">garment_id</text>
<text x="840" y="150" class="type-text">INTEGER</text>
<text x="952" y="150" text-anchor="end" class="fk-text">FK</text>
<text x="708" y="168" class="field-text">quantity</text>
<text x="840" y="168" class="type-text">INTEGER</text>
<text x="708" y="186" class="field-text">unit_price</text>
<text x="840" y="186" class="type-text">DECIMAL(10,2)</text>
<rect x="1052" y="72" width="260" height="180" rx="4" fill="#e2e8f0" opacity="0.5"/>
<rect x="1050" y="70" width="260" height="180" rx="4" class="entity-body"/>
<rect x="1050" y="70" width="260" height="28" rx="4" class="entity-header"/>
<rect x="1050" y="94" width="260" height="4" class="entity-header"/>
<text x="1180.0" y="88" text-anchor="middle" class="entity-header-text">Garment</text>
<text x="1058" y="114" class="field-text">id</text>
<text x="1190" y="114" class="type-text">INTEGER</text>
<text x="1302" y="114" text-anchor="end" class="key-text">PK</text>
<text x="1058" y="132" class="field-text">garment_type</text>
<text x="1190" y="132" class="type-text">VARCHAR(50)</text>
<text x="1058" y="150" class="field-text">color</text>
<text x="1190" y="150" class="type-text">VARCHAR(50)</text>
<text x="1058" y="168" class="field-text">design_notes</text>
<text x="1190" y="168" class="type-text">TEXT</text>
<text x="1058" y="186" class="field-text">priority</text>
<text x="1190" y="186" class="type-text">VARCHAR(20)</text>
<text x="1058" y="204" class="field-text">status</text>
<text x="1190" y="204" class="type-text">VARCHAR(30)</text>
<text x="1058" y="222" class="field-text">measurement_id</text>
<text x="1190" y="222" class="type-text">INTEGER</text>
<text x="1302" y="222" text-anchor="end" class="fk-text">FK</text>
<text x="1058" y="240" class="field-text">created_at</text>
<text x="1190" y="240" class="type-text">DATETIME</text>
<rect x="1052" y="402" width="260" height="198" rx="4" fill="#e2e8f0" opacity="0.5"/>
<rect x="1050" y="400" width="260" height="198" rx="4" class="entity-body"/>
<rect x="1050" y="400" width="260" height="28" rx="4" class="entity-header"/>
<rect x="1050" y="424" width="260" height="4" class="entity-header"/>
<text x="1180.0" y="418" text-anchor="middle" class="entity-header-text">Measurement</text>
<text x="1058" y="444" class="field-text">id</text>
<text x="1190" y="444" class="type-text">INTEGER</text>
<text x="1302" y="444" text-anchor="end" class="key-text">PK</text>
<text x="1058" y="462" class="field-text">bust</text>
<text x="1190" y="462" class="type-text">DECIMAL(6,2)</text>
<text x="1058" y="480" class="field-text">waist</text>
<text x="1190" y="480" class="type-text">DECIMAL(6,2)</text>
<text x="1058" y="498" class="field-text">hips</text>
<text x="1190" y="498" class="type-text">DECIMAL(6,2)</text>
<text x="1058" y="516" class="field-text">shoulder_width</text>
<text x="1190" y="516" class="type-text">DECIMAL(6,2)</text>
<text x="1058" y="534" class="field-text">sleeve_length</text>
<text x="1190" y="534" class="type-text">DECIMAL(6,2)</text>
<text x="1058" y="552" class="field-text">inseam</text>
<text x="1190" y="552" class="type-text">DECIMAL(6,2)</text>
<text x="1058" y="570" class="field-text">total_length</text>
<text x="1190" y="570" class="type-text">DECIMAL(6,2)</text>
<text x="1058" y="588" class="field-text">extra_notes</text>
<text x="1190" y="588" class="type-text">TEXT</text>
<rect x="352" y="442" width="260" height="198" rx="4" fill="#e2e8f0" opacity="0.5"/>
<rect x="350" y="440" width="260" height="198" rx="4" class="entity-body"/>
<rect x="350" y="440" width="260" height="28" rx="4" class="entity-header"/>
<rect x="350" y="464" width="260" height="4" class="entity-header"/>
<text x="480.0" y="458" text-anchor="middle" class="entity-header-text">WorkTicket</text>
<text x="358" y="484" class="field-text">id</text>
<text x="490" y="484" class="type-text">INTEGER</text>
<text x="602" y="484" text-anchor="end" class="key-text">PK</text>
<text x="358" y="502" class="field-text">garment_id</text>
<text x="490" y="502" class="type-text">INTEGER</text>
<text x="602" y="502" text-anchor="end" class="fk-text">FK</text>
<text x="358" y="520" class="field-text">assigned_to</text>
<text x="490" y="520" class="type-text">INTEGER</text>
<text x="602" y="520" text-anchor="end" class="fk-text">FK</text>
<text x="358" y="538" class="field-text">current_stage</text>
<text x="490" y="538" class="type-text">VARCHAR(30)</text>
<text x="358" y="556" class="field-text">priority</text>
<text x="490" y="556" class="type-text">VARCHAR(20)</text>
<text x="358" y="574" class="field-text">deadline</text>
<text x="490" y="574" class="type-text">DATE</text>
<text x="358" y="592" class="field-text">instructions</text>
<text x="490" y="592" class="type-text">TEXT</text>
<text x="358" y="610" class="field-text">created_at</text>
<text x="490" y="610" class="type-text">DATETIME</text>
<text x="358" y="628" class="field-text">updated_at</text>
<text x="490" y="628" class="type-text">DATETIME</text>
<rect x="52" y="442" width="260" height="162" rx="4" fill="#e2e8f0" opacity="0.5"/>
<rect x="50" y="440" width="260" height="162" rx="4" class="entity-body"/>
<rect x="50" y="440" width="260" height="28" rx="4" class="entity-header"/>
<rect x="50" y="464" width="260" height="4" class="entity-header"/>
<text x="180.0" y="458" text-anchor="middle" class="entity-header-text">Employee</text>
<text x="58" y="484" class="field-text">id</text>
<text x="190" y="484" class="type-text">INTEGER</text>
<text x="302" y="484" text-anchor="end" class="key-text">PK</text>
<text x="58" y="502" class="field-text">first_name</text>
<text x="190" y="502" class="type-text">VARCHAR(100)</text>
<text x="58" y="520" class="field-text">last_name</text>
<text x="190" y="520" class="type-text">VARCHAR(100)</text>
<text x="58" y="538" class="field-text">role</text>
<text x="190" y="538" class="type-text">VARCHAR(50)</text>
<text x="58" y="556" class="field-text">phone</text>
<text x="190" y="556" class="type-text">VARCHAR(20)</text>
<text x="58" y="574" class="field-text">specialization</text>
<text x="190" y="574" class="type-text">VARCHAR(100)</text>
<text x="58" y="592" class="field-text">is_active</text>
<text x="190" y="592" class="type-text">BOOLEAN</text>
<rect x="702" y="442" width="260" height="162" rx="4" fill="#e2e8f0" opacity="0.5"/>
<rect x="700" y="440" width="260" height="162" rx="4" class="entity-body"/>
<rect x="700" y="440" width="260" height="28" rx="4" class="entity-header"/>
<rect x="700" y="464" width="260" height="4" class="entity-header"/>
<text x="830.0" y="458" text-anchor="middle" class="entity-header-text">ProductionLog</text>
<text x="708" y="484" class="field-text">id</text>
<text x="840" y="484" class="type-text">INTEGER</text>
<text x="952" y="484" text-anchor="end" class="key-text">PK</text>
<text x="708" y="502" class="field-text">ticket_id</text>
<text x="840" y="502" class="type-text">INTEGER</text>
<text x="952" y="502" text-anchor="end" class="fk-text">FK</text>
<text x="708" y="520" class="field-text">performed_by</text>
<text x="840" y="520" class="type-text">INTEGER</text>
<text x="952" y="520" text-anchor="end" class="fk-text">FK</text>
<text x="708" y="538" class="field-text">from_stage</text>
<text x="840" y="538" class="type-text">VARCHAR(30)</text>
<text x="708" y="556" class="field-text">to_stage</text>
<text x="840" y="556" class="type-text">VARCHAR(30)</text>
<text x="708" y="574" class="field-text">comments</text>
<text x="840" y="574" class="type-text">TEXT</text>
<text x="708" y="592" class="field-text">timestamp</text>
<text x="840" y="592" class="type-text">DATETIME</text>
<rect x="352" y="792" width="260" height="180" rx="4" fill="#e2e8f0" opacity="0.5"/>
<rect x="350" y="790" width="260" height="180" rx="4" class="entity-body"/>
<rect x="350" y="790" width="260" height="28" rx="4" class="entity-header"/>
<rect x="350" y="814" width="260" height="4" class="entity-header"/>
<text x="480.0" y="808" text-anchor="middle" class="entity-header-text">Delivery</text>
<text x="358" y="834" class="field-text">id</text>
<text x="490" y="834" class="type-text">INTEGER</text>
<text x="602" y="834" text-anchor="end" class="key-text">PK</text>
<text x="358" y="852" class="field-text">order_id</text>
<text x="490" y="852" class="type-text">INTEGER</text>
<text x="602" y="852" text-anchor="end" class="fk-text">FK</text>
<text x="358" y="870" class="field-text">delivery_date</text>
<text x="490" y="870" class="type-text">DATE</text>
<text x="358" y="888" class="field-text">method</text>
<text x="490" y="888" class="type-text">VARCHAR(30)</text>
<text x="358" y="906" class="field-text">final_observations</text>
<text x="490" y="906" class="type-text">TEXT</text>
<text x="358" y="924" class="field-text">recipient_name</text>
<text x="490" y="924" class="type-text">VARCHAR(200)</text>
<text x="358" y="942" class="field-text">confirmed</text>
<text x="490" y="942" class="type-text">BOOLEAN</text>
<text x="358" y="960" class="field-text">created_at</text>
<text x="490" y="960" class="type-text">DATETIME</text>
<rect x="1402" y="72" width="260" height="144" rx="4" fill="#e2e8f0" opacity="0.5"/>
<rect x="1400" y="70" width="260" height="144" rx="4" class="entity-body"/>
<rect x="1400" y="70" width="260" height="28" rx="4" class="entity-header"/>
<rect x="1400" y="94" width="260" height="4" class="entity-header"/>
<text x="1530.0" y="88" text-anchor="middle" class="entity-header-text">Material</text>
<text x="1408" y="114" class="field-text">id</text>
<text x="1540" y="114" class="type-text">INTEGER</text>
<text x="1652" y="114" text-anchor="end" class="key-text">PK</text>
<text x="1408" y="132" class="field-text">name</text>
<text x="1540" y="132" class="type-text">VARCHAR(100)</text>
<text x="1408" y="150" class="field-text">fabric_type</text>
<text x="1540" y="150" class="type-text">VARCHAR(50)</text>
<text x="1408" y="168" class="field-text">color</text>
<text x="1540" y="168" class="type-text">VARCHAR(50)</text>
<text x="1408" y="186" class="field-text">stock_meters</text>
<text x="1540" y="186" class="type-text">DECIMAL(8,2)</text>
<text x="1408" y="204" class="field-text">price_per_meter</text>
<text x="1540" y="204" class="type-text">DECIMAL(8,2)</text>
<rect x="1402" y="362" width="260" height="108" rx="4" fill="#e2e8f0" opacity="0.5"/>
<rect x="1400" y="360" width="260" height="108" rx="4" class="entity-body"/>
<rect x="1400" y="360" width="260" height="28" rx="4" class="entity-header"/>
<rect x="1400" y="384" width="260" height="4" class="entity-header"/>
<text x="1530.0" y="378" text-anchor="middle" class="entity-header-text">GarmentMaterial</text>
<text x="1408" y="404" class="field-text">id</text>
<text x="1540" y="404" class="type-text">INTEGER</text>
<text x="1652" y="404" text-anchor="end" class="key-text">PK</text>
<text x="1408" y="422" class="field-text">garment_id</text>
<text x="1540" y="422" class="type-text">INTEGER</text>
<text x="1652" y="422" text-anchor="end" class="fk-text">FK</text>
<text x="1408" y="440" class="field-text">material_id</text>
<text x="1540" y="440" class="type-text">INTEGER</text>
<text x="1652" y="440" text-anchor="end" class="fk-text">FK</text>
<text x="1408" y="458" class="field-text">meters_used</text>
<text x="1540" y="458" class="type-text">DECIMAL(6,2)</text>
<line x1="310" y1="160.0" x2="350" y2="169.0" class="rel-line" marker-end="url(#arrow)"/>
<text x="330.0" y="158.5" text-anchor="middle" class="rel-label">1:N</text>
<line x1="610" y1="169.0" x2="700" y2="133.0" class="rel-line" marker-end="url(#arrow)"/>
<text x="655.0" y="145.0" text-anchor="middle" class="rel-label">1:N</text>
<line x1="960" y1="133.0" x2="1050" y2="160.0" class="rel-line" marker-end="url(#arrow)"/>
<text x="1005.0" y="140.5" text-anchor="middle" class="rel-label">N:1</text>
<line x1="1180.0" y1="250" x2="1180.0" y2="400" class="rel-line" marker-end="url(#arrow)"/>
<text x="1180.0" y="319.0" text-anchor="middle" class="rel-label">1:1</text>
<line x1="1050" y1="160.0" x2="960" y2="521.0" class="rel-line" marker-end="url(#arrow)"/>
<text x="1005.0" y="334.5" text-anchor="middle" class="rel-label">1:N</text>
<line x1="350" y1="539.0" x2="310" y2="521.0" class="rel-line" marker-end="url(#arrow)"/>
<text x="330.0" y="524.0" text-anchor="middle" class="rel-label">N:1</text>
<line x1="610" y1="539.0" x2="700" y2="521.0" class="rel-line" marker-end="url(#arrow)"/>
<text x="655.0" y="524.0" text-anchor="middle" class="rel-label">1:N</text>
<line x1="700" y1="521.0" x2="310" y2="521.0" class="rel-line" marker-end="url(#arrow)"/>
<text x="505.0" y="515.0" text-anchor="middle" class="rel-label">N:1</text>
<line x1="480.0" y1="268" x2="480.0" y2="790" class="rel-line" marker-end="url(#arrow)"/>
<text x="480.0" y="523.0" text-anchor="middle" class="rel-label">1:0..1</text>
<line x1="1310" y1="160.0" x2="1400" y2="414.0" class="rel-line" marker-end="url(#arrow)"/>
<text x="1355.0" y="281.0" text-anchor="middle" class="rel-label">1:N</text>
<line x1="1530.0" y1="214" x2="1530.0" y2="360" class="rel-line" marker-end="url(#arrow)"/>
<text x="1530.0" y="281.0" text-anchor="middle" class="rel-label">N:1</text>
</svg>